<?xml version="1.0" encoding="UTF-8" standalone="no"?>
<svg
   xmlns:dc="http://purl.org/dc/elements/1.1/"
   xmlns:cc="http://creativecommons.org/ns#"
   xmlns:rdf="http://www.w3.org/1999/02/22-rdf-syntax-ns#"
   xmlns:svg="http://www.w3.org/2000/svg"
   xmlns="http://www.w3.org/2000/svg"
   id="svg4"
   version="1.1"
   viewBox="0 0 256 256">
  <metadata
     id="metadata10">
    <rdf:RDF>
      <cc:Work
         rdf:about="">
        <dc:format>image/svg+xml</dc:format>
        <dc:type
           rdf:resource="http://purl.org/dc/dcmitype/StillImage" />
        <dc:title></dc:title>
      </cc:Work>
    </rdf:RDF>
  </metadata>
  <defs
     id="defs8" />
  <path
     d="m 29.378497,34.289062 c 0,0 -1.870063,1.100208 -3.152414,3.151968 -1.789841,2.302529 87.861327,91.0745 89.950457,93.16408 -11.58418,11.75762 -74.51648,76.66468 -89.950457,88.71342 -2.089126,2.08913 -2.089126,5.47649 0,7.56607 l 3.152414,3.15197 c 2.089127,2.08912 5.47649,2.08912 7.565616,0 L 131.0355,135.94562 c 2.08912,-2.08912 2.08912,-5.47649 0,-7.56606 L 36.944113,34.289062 c -2.089126,-2.089572 -5.476489,-2.089572 -7.565616,0 z"
     class=""
     id="path2"
     style="fill:#000000;fill-opacity:1;stroke:#000000;stroke-width:11.07164478;stroke-miterlimit:4;stroke-dasharray:none;stroke-opacity:1" />
  <path
     d="m 223.54999,32.837405 c 0,0 1.87006,1.100207 3.15241,3.151969 1.78985,2.302528 -87.86132,91.074506 -89.95045,93.164076 11.58418,11.75762 74.51647,76.66468 89.95045,88.71342 2.08913,2.08913 2.08913,5.47649 0,7.56607 l -3.15241,3.15197 c -2.08913,2.08912 -5.47649,2.08912 -7.56561,0 l -94.09139,-94.09095 c -2.08913,-2.08913 -2.08913,-5.47649 0,-7.56606 l 94.09139,-94.090495 c 2.08912,-2.089572 5.47648,-2.089572 7.56561,0 z"
     class=""
     id="path2-3"
     style="fill:#000000;fill-opacity:1;stroke:#000000;stroke-width:11.07164478;stroke-miterlimit:4;stroke-dasharray:none;stroke-opacity:1" />
</svg>
