<?xml version="1.0" encoding="UTF-8" standalone="no"?>
<!-- Created with Inkscape (http://www.inkscape.org/) -->

<svg
   xmlns:dc="http://purl.org/dc/elements/1.1/"
   xmlns:cc="http://creativecommons.org/ns#"
   xmlns:rdf="http://www.w3.org/1999/02/22-rdf-syntax-ns#"
   xmlns:svg="http://www.w3.org/2000/svg"
   xmlns="http://www.w3.org/2000/svg"
   xmlns:sodipodi="http://sodipodi.sourceforge.net/DTD/sodipodi-0.dtd"
   xmlns:inkscape="http://www.inkscape.org/namespaces/inkscape"
   inkscape:version="0.91 r13725"
   version="1.1"
   id="svg2"
   viewBox="0 0 780 780.00001"
   height="780"
   width="780"
   sodipodi:docname="icon_black.svg"
   style="enable-background:new"
   inkscape:export-filename="/home/rafsb/Alphabox/html/webtmp/defaults/img/abox/icon_light.png"
   inkscape:export-xdpi="90"
   inkscape:export-ydpi="90">
  <defs
     id="defs4">
    <clipPath
       clipPathUnits="userSpaceOnUse"
       id="clipPath4310">
      <ellipse
         style="fill:#ffdd55;fill-opacity:1;stroke:none;stroke-width:32.72146225;stroke-linejoin:round;stroke-miterlimit:4;stroke-dasharray:none;stroke-dashoffset:0;stroke-opacity:1"
         id="circle4312"
         cx="331.22733"
         cy="733.25403"
         rx="331.22733"
         ry="349.97137"
         transform="matrix(0.88612656,0.46344333,-0.49448321,0.86918718,0,0)" />
    </clipPath>
  </defs>
  <sodipodi:namedview
     inkscape:window-maximized="1"
     inkscape:window-y="24"
     inkscape:window-x="0"
     inkscape:window-height="714"
     inkscape:window-width="1366"
     showgrid="false"
     inkscape:current-layer="layer1"
     inkscape:document-units="px"
     inkscape:cy="233.43493"
     inkscape:cx="-223.12054"
     inkscape:zoom="0.3535534"
     inkscape:pageshadow="2"
     inkscape:pageopacity="0.0"
     borderopacity="1.0"
     bordercolor="#666666"
     pagecolor="#ffffff"
     id="base"
     inkscape:snap-bbox="true"
     units="px" />
  <metadata
     id="metadata7">
    <rdf:RDF>
      <cc:Work
         rdf:about="">
        <dc:format>image/svg+xml</dc:format>
        <dc:type
           rdf:resource="http://purl.org/dc/dcmitype/StillImage" />
        <dc:title></dc:title>
      </cc:Work>
    </rdf:RDF>
  </metadata>
  <g
     inkscape:label="Layer 1"
     inkscape:groupmode="layer"
     id="layer1"
     transform="translate(0,-272.36213)"
     style="display:inline">
    <ellipse
       style="opacity:1;fill:none;fill-opacity:1;fill-rule:nonzero;stroke:#000000;stroke-width:24.05015945;stroke-linejoin:round;stroke-miterlimit:4;stroke-dasharray:none;stroke-dashoffset:0;stroke-opacity:1"
       id="path4155"
       cx="387.89175"
       cy="653.77325"
       rx="354.60245"
       ry="349.9202"
       inkscape:export-xdpi="90"
       inkscape:export-ydpi="90" />
    <text
       xml:space="preserve"
       style="font-style:normal;font-weight:normal;font-size:39.97667694px;line-height:125%;font-family:sans-serif;letter-spacing:0px;word-spacing:0px;fill:#000000;fill-opacity:1;stroke:none;stroke-width:1px;stroke-linecap:butt;stroke-linejoin:miter;stroke-opacity:1;"
       x="3099.4832"
       y="825.38086"
       id="text4344"
       sodipodi:linespacing="125%"
       transform="scale(0.99955319,1.000447)"
       inkscape:export-xdpi="90"
       inkscape:export-ydpi="90"><tspan
         sodipodi:role="line"
         id="tspan4346"
         x="3099.4832"
         y="825.38086" /></text>
    <path
       style="opacity:1;fill:#000000;fill-opacity:1;fill-rule:nonzero;stroke:none;stroke-width:16;stroke-linejoin:round;stroke-miterlimit:4;stroke-dasharray:none;stroke-dashoffset:0;stroke-opacity:1"
       d="m 602.48863,892.34331 c 0,-2.10877 7.24751,-12.69587 8.69108,-12.69587 0.67586,0 1.22881,-1.12005 1.22881,-2.48899 0,-1.36894 1.60309,-4.21404 3.56243,-6.32247 1.95931,-2.1084 4.20214,-5.28344 4.98403,-7.05564 0.78191,-1.7722 3.34196,-6.40372 5.68904,-10.29228 2.34708,-3.88856 4.86796,-8.49308 5.60196,-10.23227 0.73399,-1.73917 2.62907,-5.83563 4.21127,-9.10323 1.5822,-3.26756 2.87671,-6.52076 2.87671,-7.22929 0,-0.70852 0.89202,-3.29331 1.98223,-5.74398 4.24235,-9.53613 9.08692,-31.83646 11.02826,-50.76495 2.13603,-20.82671 -0.35367,-45.78542 -6.73526,-67.51949 -4.66175,-15.87673 -11.67644,-33.4395 -16.66072,-41.71361 -4.01715,-6.66865 -10.35495,-15.90965 -14.0619,-20.50331 -2.19656,-2.72199 -4.46014,-5.58537 -5.0302,-6.36309 -14.61678,-19.94176 -43.58219,-47.31698 -61.34247,-57.97485 -1.29598,-0.77771 -8.43101,-5.07279 -15.85563,-9.54463 -7.42459,-4.47184 -14.04077,-8.13454 -14.70257,-8.13933 -0.66184,-0.004 -2.81494,-0.84797 -4.78467,-1.87373 -1.96975,-1.02576 -4.83944,-2.24078 -6.37708,-2.70005 -1.53766,-0.45927 -6.30312,-2.21197 -10.58993,-3.89488 -27.95291,-10.97376 -54.16272,-17.81494 -59.999,-15.66067 -2.05281,0.75771 -0.0685,2.06592 8.46476,5.5809 12.30958,5.07043 33.26199,15.17384 38.78009,18.70006 11.63237,7.4334 20.64135,13.39088 21.25693,14.05681 0.3897,0.4216 5.49136,4.75175 11.33701,9.62253 16.01301,13.34259 28.34256,24.69435 28.34256,26.09484 0,0.68742 3.5074,5.11715 7.79422,9.84384 4.2868,4.72669 7.7942,9.32909 7.7942,10.22757 0,0.89846 1.59426,3.12803 3.54282,4.95458 1.94854,1.82657 3.54282,4.44516 3.54282,5.81912 0,1.37394 0.60018,2.86824 1.33374,3.32059 1.31266,0.80948 4.5937,7.30923 9.30527,18.4337 1.31754,3.11085 3.66927,8.51947 5.22602,12.01917 7.69712,17.30363 8.42273,19.58483 11.69403,36.76454 1.25874,6.61054 2.90655,14.73263 3.66176,18.04905 1.83119,8.04136 1.74125,24.14957 -0.18132,32.48191 -4.72241,20.46653 -6.57519,26.28187 -12.13237,38.07971 -4.62379,9.81634 -8.2832,15.16649 -15.08405,22.05338 -16.46324,16.67155 -21.19287,14.85332 -35.97849,-13.83117 -5.60446,-10.87281 -11.15127,-21.35952 -12.32623,-23.3038 -1.17495,-1.94427 -2.73829,-4.80767 -3.47408,-6.36309 -0.73578,-1.55542 -14.63907,-16.19054 -30.8962,-32.52248 -30.67891,-30.8201 -34.46228,-35.8526 -38.24725,-50.87502 -4.40405,-17.47948 -5.21956,-20.15005 -7.78136,-25.4821 -1.4946,-3.11084 -5.57445,-9.67381 -9.06631,-14.58437 -3.49186,-4.91056 -6.34885,-9.44589 -6.34885,-10.07852 0,-0.63261 -0.88728,-1.88497 -1.97174,-2.78303 -1.08446,-0.89804 -4.59184,-7.00781 -7.7942,-13.57726 -4.64603,-9.53104 -5.82247,-13.50443 -5.82247,-19.66514 l 0,-7.72069 8.41131,0.7201 c 8.45364,0.72373 14.26275,-0.90978 14.26275,-4.01065 0,-2.55791 -8.61592,-19.50478 -9.91639,-19.50478 -0.64764,0 -3.08605,-3.02247 -5.41865,-6.71659 -2.3326,-3.69414 -7.81601,-10.51526 -12.18536,-15.15805 -4.87535,-5.1805 -9.89023,-12.55477 -12.98168,-19.08929 -2.77058,-5.8563 -6.60077,-13.82211 -8.51154,-17.7018 -3.68034,-7.47269 -13.74052,-18.49383 -26.47468,-29.00355 -4.24042,-3.4997 -9.7517,-9.22649 -12.24724,-12.7262 -7.01843,-9.84248 -14.29769,-21.33703 -14.29769,-22.57724 0,-0.61605 -2.62017,-3.81409 -5.82261,-7.10673 -5.04203,-5.18408 -6.43267,-5.88789 -10.3732,-5.24982 -7.71975,1.25 -15.37647,7.50367 -18.2228,14.88361 -1.40365,3.63934 -3.48501,8.63164 -4.6252,11.094 -1.53128,3.30689 -1.70252,5.44959 -0.65518,8.19825 1.03972,2.7287 0.87271,5.02325 -0.62616,8.60269 -1.77595,4.24116 -2.69149,4.88144 -6.97984,4.88144 -3.82485,0 -5.59207,-0.91968 -7.85177,-4.08618 -1.60379,-2.2474 -6.20951,-5.80452 -10.23492,-7.90473 -6.03563,-3.14902 -7.90905,-3.55027 -10.6846,-2.28841 -6.7964,3.08985 -6.26496,12.1667 1.65357,28.24243 4.55009,9.23735 6.35673,21.85426 7.31452,51.08184 0.85322,26.03706 -1.39821,38.27594 -11.57532,62.92393 -2.40951,5.83562 -6.34971,17.37313 -7.96793,23.33133 -0.73928,2.722 -1.89922,6.22169 -2.57764,7.77712 -5.0828,11.65343 -5.31928,16.75855 -0.87001,18.78132 3.4995,1.59098 3.68184,3.8744 0.87139,10.91312 -0.62107,1.55542 -2.13749,5.37327 -3.36984,8.48411 -2.05411,5.18525 -2.90909,10.09856 -2.50692,14.40642 0.0863,0.92414 1.83122,1.56044 3.87766,1.41402 l 3.72078,-0.26621 -0.26915,12.51992 c -0.148,6.88595 -0.82493,13.97859 -1.50425,15.76141 -1.45076,3.80745 0.69908,7.28988 4.95667,8.02909 2.26023,0.39243 3.11235,2.19728 4.2288,8.95691 2.1886,13.25095 1.48412,34.28297 -1.24928,37.29672 -1.24703,1.37494 -2.26733,3.18014 -2.26733,4.01155 0,0.83142 -2.55083,5.70121 -5.66852,10.82178 -3.11768,5.12055 -5.66851,9.65535 -5.66851,10.07731 0,1.50709 -11.98952,19.86124 -15.52686,23.76929 -13.20193,14.58543 -31.56092,9.49858 -45.01197,-12.47181 -3.40106,-5.55517 -7.48331,-15.24674 -7.48331,-17.76597 0,-1.41067 -0.63772,-2.95811 -1.41713,-3.43875 -0.77943,-0.48066 -1.41713,-2.35441 -1.41713,-4.16388 0,-1.80949 -0.95264,-5.11256 -2.11696,-7.34017 -1.16433,-2.2276 -2.1209,-6.35634 -2.1257,-9.17499 -0.005,-2.81863 -1.08865,-7.9091 -2.40856,-11.31216 -1.98507,-5.11801 -2.41368,-11.5873 -2.47997,-37.43208 -0.0587,-22.90158 0.38959,-31.80943 1.67896,-33.35958 0.96753,-1.16319 1.46158,-2.41178 1.09791,-2.77464 -1.03787,-1.0356 2.11287,-18.72093 3.60225,-20.21965 0.73422,-0.73883 1.33493,-3.40559 1.33493,-5.92614 0,-2.52055 0.58864,-4.94581 1.30811,-5.38949 0.71944,-0.44369 1.7209,-2.68209 2.22545,-4.97425 0.50455,-2.29216 2.38174,-7.21627 4.17153,-10.94244 1.78979,-3.72619 3.74376,-8.34105 4.34217,-10.25525 1.91499,-6.12581 12.51793,-22.69504 20.19241,-31.55473 4.09196,-4.7239 7.43993,-9.11353 7.43993,-9.75474 0,-0.6412 0.9241,-1.16583 2.05357,-1.16583 1.87208,0 9.28346,-8.25544 9.28346,-10.34075 0,-7.40525 -59.32505,50.20672 -59.55876,57.83893 -0.0217,0.70703 -1.93476,3.14143 -4.25139,5.40976 -2.3166,2.26832 -4.21201,4.89471 -4.21201,5.83644 0,0.94173 -0.89737,2.45533 -1.99414,3.36358 -2.63348,2.1808 -15.53291,28.59718 -18.35097,37.5805 -1.21986,3.88856 -2.97462,9.29717 -3.89948,12.01918 -3.8236,11.25336 -7.41341,60.12776 -5.24492,71.40804 0.59804,3.11084 1.68027,10.11026 2.405,15.55423 1.62128,12.17894 5.47226,26.00772 8.85984,31.81547 0.68044,1.16656 1.62024,3.0755 2.08843,4.24205 0.4682,1.16657 1.73956,4.12613 2.82524,6.5768 1.08569,2.45067 1.97398,5.43558 1.97398,6.63314 0,1.19757 0.6377,2.57065 1.41712,3.0513 0.77942,0.48066 1.41714,1.88984 1.41714,3.13154 0,1.24168 1.59427,4.34321 3.54282,6.8923 1.94854,2.54909 3.5428,5.31346 3.5428,6.14307 0,3.73152 -4.62541,0.77385 -12.26133,-7.84037 -4.55786,-5.14181 -9.40301,-10.55044 -10.76699,-12.01918 -1.36399,-1.46874 -2.47997,-3.20779 -2.47997,-3.86454 0,-0.65673 -1.53802,-2.98005 -3.41782,-5.16292 -1.8798,-2.18285 -5.06935,-7.21323 -7.08792,-11.1786 -2.01856,-3.96537 -5.25655,-9.75499 -7.19556,-12.86583 -1.939,-3.11085 -4.163111,-7.11124 -4.942467,-8.88977 -1.987312,-4.53516 -12.744455,-27.42207 -14.120227,-30.04221 -0.625955,-1.19211 -1.587084,-4.20728 -2.135869,-6.7004 -0.548784,-2.49311 -1.586434,-4.89593 -2.305892,-5.33961 -0.719449,-0.44367 -1.308102,-2.3383 -1.308102,-4.2103 0,-1.87199 -0.882791,-5.49322 -1.961758,-8.04717 -10.107274,-23.92405 -15.064344,-86.99229 -10.089741,-128.37036 2.757488,-22.93641 7.696018,-45.71038 10.524223,-48.53238 0.840004,-0.83817 1.527276,-3.17836 1.527276,-5.2004 0,-2.02205 0.555737,-4.28095 1.234967,-5.01978 0.679219,-0.73883 2.36635,-5.16118 3.749156,-9.82744 2.880111,-9.71893 24.646794,-54.27155 29.823674,-61.04388 1.90006,-2.48567 3.45466,-4.95507 3.45466,-5.48758 0,-0.53251 1.75371,-3.06073 3.89712,-5.61829 2.14339,-2.55756 7.40449,-9.30339 11.6913,-14.99075 8.2448,-10.93846 42.63399,-45.71426 51.01662,-51.59016 2.72797,-1.9122 8.78619,-6.31251 13.4627,-9.77846 4.67653,-3.46596 10.09704,-7.06498 12.04559,-7.99782 1.94856,-0.93284 4.82484,-2.81494 6.39177,-4.18242 1.56692,-1.36749 6.98742,-4.63983 12.04559,-7.27187 5.05815,-2.63203 10.47206,-5.45722 12.03091,-6.27818 1.55883,-0.82094 5.06622,-2.4657 7.7942,-3.655 2.72797,-1.18928 9.8238,-4.42237 15.7685,-7.18463 13.35193,-6.20409 26.81556,-10.78071 40.20807,-13.66771 13.93149,-3.0032 23.25012,-5.33064 24.54843,-6.13129 0.77392,-0.47725 6.40813,-1.24973 12.5205,-1.71661 6.11238,-0.4669 11.61172,-1.15181 12.22077,-1.52206 0.60905,-0.37022 8.9081,-1.22475 18.44236,-1.89894 18.96283,-1.3409 45.89816,0.0853 67.60367,3.57948 7.40449,1.192 16.65126,2.65071 20.54836,3.24158 3.89709,0.59088 8.01888,1.65399 9.15951,2.36246 1.14062,0.70848 4.64801,1.75536 7.79419,2.32641 8.49435,1.54176 17.54015,3.9447 20.29379,5.39087 5.12213,2.69006 12.85324,5.7571 14.51193,5.7571 2.98309,0 49.90304,23.91892 57.69512,29.4119 4.08172,2.87738 11.0965,7.75284 15.58841,10.83435 4.4919,3.08151 10.29541,7.53567 12.89674,9.89814 2.60128,2.36248 5.91909,4.938 7.37288,5.72339 4.44753,2.4027 22.4687,20.52165 33.03628,33.21553 5.50324,6.61054 10.35818,12.33733 10.78874,12.72618 0.43059,0.38886 2.37145,3.08883 4.31305,5.99993 1.94159,2.9111 4.00844,5.29726 4.59302,5.30257 0.58455,0.005 1.06284,0.942 1.06284,2.0815 0,1.13952 1.91311,4.24597 4.25139,6.90326 2.33826,2.6573 4.25137,5.26714 4.25137,5.79964 0,0.53251 1.59427,3.05379 3.54283,5.60288 1.94855,2.54909 3.54283,5.32457 3.54283,6.16775 0,0.84318 0.79712,2.38359 1.7714,3.42316 0.97427,1.03955 2.8133,4.10747 4.08674,6.8176 1.27343,2.7101 3.96343,8.42719 5.97778,12.7046 2.01434,4.27742 5.67486,13.18575 8.13451,19.7963 2.45963,6.61054 4.98709,13.05438 5.61659,14.31963 0.62948,1.26525 1.59075,4.76495 2.13615,7.77711 0.54539,3.01216 1.38373,6.11297 1.86298,6.89068 1.27106,2.06267 4.34154,15.61517 5.84391,25.79385 0.71644,4.85407 2.02511,10.17259 2.90812,11.8189 2.74259,5.11336 2.20785,79.75928 -0.68274,95.30521 -5.17264,27.81897 -7.56393,37.98217 -11.47826,48.78371 -5.29291,14.60574 -14.22968,36.44306 -17.17938,41.97853 -8.09451,15.19029 -12.48337,22.72436 -16.27643,27.94055 -2.23212,3.06963 -4.0584,6.41026 -4.0584,7.42361 0,1.01336 -0.51054,1.84246 -1.13455,1.84246 -0.62398,0 -2.86454,2.73096 -4.97899,6.06879 -2.11447,3.33782 -5.5896,7.99134 -7.72253,10.34114 -2.13293,2.34981 -6.30859,7.25024 -9.27927,10.88987 -4.43958,5.43931 -15.38373,15.56493 -33.92408,31.38675 -1.36398,1.164 -2.47997,1.4664 -2.47997,0.67201 z"
       id="path4147"
       inkscape:connector-curvature="0"
       inkscape:export-xdpi="90"
       inkscape:export-ydpi="90" />
    <path
       style="opacity:1;fill:#000000;fill-opacity:1;fill-rule:nonzero;stroke:none;stroke-width:16;stroke-linejoin:round;stroke-miterlimit:4;stroke-dasharray:none;stroke-dashoffset:0;stroke-opacity:1"
       d="m 266.10553,887.96799 c -19.1391,-5.77757 -31.91376,-27.84172 -24.5816,-42.45686 4.37691,-8.72445 22.35329,-26.58503 38.11823,-37.87267 4.63277,-3.31704 4.94724,-3.35348 9.63427,-1.1164 8.57372,4.09219 9.99158,7.93842 9.46775,25.68316 -0.25322,8.57755 -0.98839,16.23889 -1.63374,17.02518 -0.64533,0.78629 -1.6309,4.61116 -2.19014,8.49972 -0.55924,3.88856 -1.51286,7.70641 -2.11913,8.48413 -0.60629,0.77771 -1.54317,4.3783 -2.08196,8.00131 -1.75941,11.83066 -12.00901,17.55743 -24.61368,13.75243 z"
       id="path4149"
       inkscape:connector-curvature="0"
       inkscape:export-xdpi="90"
       inkscape:export-ydpi="90" />
  </g>
</svg>
