<?xml version="1.0" encoding="UTF-8" standalone="no"?>
<!-- Created with Inkscape (http://www.inkscape.org/) -->

<svg
   xmlns:dc="http://purl.org/dc/elements/1.1/"
   xmlns:cc="http://creativecommons.org/ns#"
   xmlns:rdf="http://www.w3.org/1999/02/22-rdf-syntax-ns#"
   xmlns:svg="http://www.w3.org/2000/svg"
   xmlns="http://www.w3.org/2000/svg"
   xmlns:xlink="http://www.w3.org/1999/xlink"
   xmlns:sodipodi="http://sodipodi.sourceforge.net/DTD/sodipodi-0.dtd"
   xmlns:inkscape="http://www.inkscape.org/namespaces/inkscape"
   inkscape:version="0.91 r13725"
   version="1.1"
   id="svg2"
   viewBox="0 0 4000 1880"
   height="1880"
   width="4000"
   sodipodi:docname="sign_rafael.svg"
   style="enable-background:new"
   inkscape:export-filename="/home/rafsb/WEB/webtmp/img/abox/logo_dark.png"
   inkscape:export-xdpi="90"
   inkscape:export-ydpi="90">
  <defs
     id="defs4">
    <linearGradient
       id="linearGradient4305"
       inkscape:collect="always">
      <stop
         id="stop4307"
         offset="0"
         style="stop-color:#000042;stop-opacity:1" />
      <stop
         id="stop4309"
         offset="1"
         style="stop-color:#c0ae6d;stop-opacity:0" />
    </linearGradient>
    <linearGradient
       inkscape:collect="always"
       id="linearGradient4442">
      <stop
         style="stop-color:#c0ae6d;stop-opacity:1"
         offset="0"
         id="stop4444" />
      <stop
         style="stop-color:#c0ae6d;stop-opacity:0"
         offset="1"
         id="stop4446" />
    </linearGradient>
    <clipPath
       clipPathUnits="userSpaceOnUse"
       id="clipPath4310">
      <ellipse
         style="fill:#ffdd55;fill-opacity:1;stroke:none;stroke-width:32.72146225;stroke-linejoin:round;stroke-miterlimit:4;stroke-dasharray:none;stroke-dashoffset:0;stroke-opacity:1"
         id="circle4312"
         cx="331.22733"
         cy="733.25403"
         rx="331.22733"
         ry="349.97137"
         transform="matrix(0.88612656,0.46344333,-0.49448321,0.86918718,0,0)" />
    </clipPath>
    <clipPath
       id="clipPath4310-7"
       clipPathUnits="userSpaceOnUse">
      <ellipse
         transform="matrix(0.88612656,0.46344333,-0.49448321,0.86918718,0,0)"
         ry="349.97137"
         rx="331.22733"
         cy="733.25403"
         cx="331.22733"
         id="circle4312-5"
         style="fill:#ffdd55;fill-opacity:1;stroke:none;stroke-width:32.72146225;stroke-linejoin:round;stroke-miterlimit:4;stroke-dasharray:none;stroke-dashoffset:0;stroke-opacity:1" />
    </clipPath>
    <radialGradient
       inkscape:collect="always"
       xlink:href="#linearGradient4442"
       id="radialGradient4448"
       cx="2136"
       cy="80.362183"
       fx="2136"
       fy="80.362183"
       r="14.000001"
       gradientTransform="matrix(-0.00706132,-23.466445,23.548552,-0.00708603,880.39393,50817.273)"
       gradientUnits="userSpaceOnUse" />
    <radialGradient
       inkscape:collect="always"
       xlink:href="#linearGradient4305"
       id="radialGradient4448-5"
       cx="2136"
       cy="80.362183"
       fx="2136"
       fy="80.362183"
       r="14.000001"
       gradientTransform="matrix(-0.00706132,-23.466446,23.548552,-0.00708604,2422.2169,50805.176)"
       gradientUnits="userSpaceOnUse" />
  </defs>
  <sodipodi:namedview
     inkscape:window-maximized="1"
     inkscape:window-y="24"
     inkscape:window-x="0"
     inkscape:window-height="714"
     inkscape:window-width="1366"
     showgrid="false"
     inkscape:current-layer="layer1"
     inkscape:document-units="px"
     inkscape:cy="905.40719"
     inkscape:cx="2360.6963"
     inkscape:zoom="0.125"
     inkscape:pageshadow="2"
     inkscape:pageopacity="0.0"
     borderopacity="1.0"
     bordercolor="#666666"
     pagecolor="#ffffff"
     id="base"
     inkscape:snap-bbox="true"
     units="px" />
  <metadata
     id="metadata7">
    <rdf:RDF>
      <cc:Work
         rdf:about="">
        <dc:format>image/svg+xml</dc:format>
        <dc:type
           rdf:resource="http://purl.org/dc/dcmitype/StillImage" />
        <dc:title></dc:title>
      </cc:Work>
    </rdf:RDF>
  </metadata>
  <g
     inkscape:label="Layer 1"
     inkscape:groupmode="layer"
     id="layer1"
     transform="translate(0,827.63787)"
     style="display:inline">
    <rect
       style="opacity:1;fill:#ffffff;fill-opacity:1;stroke:none;stroke-width:12;stroke-linecap:round;stroke-linejoin:round;stroke-miterlimit:4;stroke-dasharray:none;stroke-opacity:1"
       id="rect4220"
       width="4024"
       height="1928"
       x="0"
       y="-843.63782"
       ry="0.68463999" />
    <g
       id="g4209"
       transform="matrix(1.5186496,0,0,1.5186496,1372.5395,-1086.7868)">
      <g
         id="g4248"
         transform="matrix(0.45338685,0,0,0.45338685,-1762.7051,905.24635)">
        <g
           id="g4171"
           transform="matrix(0.69552692,0,0,0.69552692,1503.2831,650.11422)"
           inkscape:export-xdpi="90"
           inkscape:export-ydpi="90">
          <path
             style="display:inline;opacity:1;fill:none;fill-opacity:1;fill-rule:nonzero;stroke:#c0ae6d;stroke-width:24.06419182;stroke-linejoin:round;stroke-miterlimit:4;stroke-dasharray:none;stroke-dashoffset:0;stroke-opacity:1;enable-background:new"
             d="M 3443.6104,45.442171 A 354.96793,349.9679 0 0 1 3088.6425,395.40997 354.96793,349.9679 0 0 1 2733.6745,45.442171 354.96793,349.9679 0 0 1 3088.6425,-304.52573 354.96793,349.9679 0 0 1 3443.6104,45.442171 Z"
             id="path4155-3"
             inkscape:connector-curvature="0" />
          <path
             inkscape:export-ydpi="90"
             inkscape:export-xdpi="90"
             inkscape:connector-curvature="0"
             id="path4149-6"
             d="m 2966.7307,279.66877 c -19.1588,-5.7784 -31.9466,-27.8455 -24.6069,-42.4626 4.3814,-8.7256 22.3763,-26.5887 38.1575,-37.8778 4.6375,-3.3176 4.9523,-3.354 9.6442,-1.1166 8.5826,4.0927 10.0019,7.9395 9.4775,25.6866 -0.2535,8.5787 -0.9894,16.2411 -1.6354,17.0275 -0.646,0.7864 -1.6326,4.6118 -2.1924,8.5009 -0.5598,3.8891 -1.5144,7.7075 -2.1213,8.4853 -0.6069,0.7778 -1.5448,4.3789 -2.0841,8.0024 -1.7612,11.8323 -12.0214,17.5598 -24.6391,13.7543 z"
             style="display:inline;opacity:1;fill:#c0ae6d;fill-opacity:1;fill-rule:nonzero;stroke:none;stroke-width:16;stroke-linejoin:round;stroke-miterlimit:4;stroke-dasharray:none;stroke-dashoffset:0;stroke-opacity:1;enable-background:new" />
          <path
             inkscape:export-ydpi="90"
             inkscape:export-xdpi="90"
             inkscape:connector-curvature="0"
             id="path4147-0"
             d="m 3303.4605,284.04467 c 0,-2.109 7.255,-12.6976 8.7001,-12.6976 0.6765,0 1.23,-1.1202 1.23,-2.4893 0,-1.3691 1.6048,-4.2146 3.5661,-6.3233 1.9614,-2.1087 4.2065,-5.2841 4.9892,-7.0567 0.7827,-1.7724 3.3454,-6.4045 5.6949,-10.2935 2.3495,-3.8892 4.873,-8.4944 5.6077,-10.2337 0.7348,-1.7395 2.6318,-5.8365 4.2156,-9.1046 1.5839,-3.268 2.8797,-6.5216 2.8797,-7.2302 0,-0.7086 0.893,-3.2938 1.9843,-5.7448 4.2467,-9.5373 9.0963,-31.8407 11.0396,-50.7718 2.1383,-20.8295 -0.354,-45.7916 -6.7422,-67.528699 -4.6665,-15.8789 -11.6884,-33.444 -16.6779,-41.7193 -4.0213,-6.6695 -10.3656,-15.9118 -14.0764,-20.5061 -2.1988,-2.7223 -4.4647,-5.5861 -5.0353,-6.3639 -14.6319,-19.9445002 -43.6272,-47.3235 -61.4057,-57.9828 -1.2974,-0.7778 -8.4397,-5.0735 -15.872,-9.5459 -7.4323,-4.4725 -14.0553,-8.1357 -14.7177,-8.1405 -0.6626,0 -2.8179,-0.8481 -4.7896,-1.8739 -1.9718,-1.0259 -4.8445,-2.2411 -6.3837,-2.7005 -1.5392,-0.4593 -6.3096,-2.2123 -10.6008,-3.8955 -27.9818,-10.9752 -54.2186,-17.8172 -60.0609,-15.6628 -2.0549,0.7578 -0.069,2.0662 8.4735,5.5817 12.3223,5.0711 33.2963,15.176 38.8201,18.7027 11.6443,7.4344 20.6626,13.3927 21.2788,14.0587 0.3901,0.4217 5.497,4.7524 11.3487,9.6239 16.0295,13.3444 28.3718,24.6976998 28.3718,26.09839981 0,0.6875 3.511,5.11779999 7.8022,9.84510019 4.2912,4.7274 7.8023,9.3304 7.8023,10.229 0,0.8986 1.5959,3.1285 3.5464,4.9553 1.9506,1.8268 3.5465,4.4457 3.5465,5.8199 0,1.3741 0.6008,2.8686 1.3351,3.321 1.314,0.8096 4.5985,7.3102 9.3149,18.4362 1.3189,3.1113 3.673,8.5207 5.2314,12.0208 7.705,17.306 8.4314,19.5875 11.7061,36.769599 1.26,6.6114 2.9095,14.7346 3.6655,18.0515 1.8331,8.0425 1.743,24.1529 -0.1815,32.4862 -4.7273,20.4694 -6.582,26.2855 -12.1449,38.0849 -4.6285,9.8178 -8.2917,15.1686 -15.0996,22.0564 -16.4802,16.6738 -21.2147,14.8554 -36.0155,-13.833 -5.6103,-10.8743 -11.1628,-21.3625 -12.339,-23.3069 -1.1761,-1.9446 -2.7411,-4.8084 -3.4776,-6.3641 -0.7366,-1.5556 -14.6542,-16.1927 -30.9281,-32.5268 -30.7105,-30.8243 -34.4978,-35.8575 -38.2867,-50.881899 -4.4085,-17.4819 -5.2249,-20.1528 -7.7893,-25.4856 -1.4962,-3.1113 -5.5802,-9.6751 -9.0757,-14.5864 -3.4955,-4.9112 -6.3554,-9.4471 -6.3554,-10.0799 0,-0.6327 -0.8882,-1.8852 -1.9738,-2.7834 -1.0855,-0.8981 -4.5965,-7.0087 -7.8022,-13.5791 -4.6508,-9.5323002 -5.8285,-13.5063002 -5.8285,-19.66780019 l 0,-7.72170001 8.42,0.7202 c 8.4624,0.7238 14.2775,-0.9099 14.2775,-4.0111998 0,-2.5583 -8.6248,-19.5075 -9.9266,-19.5075 -0.6484,0 -3.0893,-3.0229 -5.4243,-6.7175 -2.335,-3.6946 -7.824,-10.5167 -12.1979,-15.1601 -4.8804,-5.1813 -9.9004,-12.5566 -12.9951,-19.0919 -2.7734,-5.8572 -6.6075,-13.8241 -8.5203,-17.7043 -3.6841,-7.4737 -13.7547,-18.496401 -26.5019,-29.007501 -4.2448,-3.5002 -9.7618,-9.2277 -12.2599,-12.7279 -7.0257,-9.8438 -14.3124,-21.34 -14.3124,-22.5803 0,-0.6162 -2.6229,-3.8147 -5.8286,-7.1077 -5.0473,-5.1848 -6.4393,-5.8887 -10.3839,-5.2506 -7.7277,1.2502 -15.3923,7.5047 -18.2416,14.8856 -1.4051,3.64 -3.4886,8.633 -4.63,11.0955 -1.5328,3.3075 -1.7043,5.4505 -0.6558,8.1994 1.0408,2.7291 0.8736,5.0239 -0.6268,8.6039 -1.7778,4.2417 -2.6943,4.8821 -6.9871,4.8821 -3.8288,0 -5.5978,-0.9197 -7.8598,-4.0867 -1.6055,-2.2477 -6.2159,-5.8054 -10.2455,-7.9059 -6.0418,-3.1494 -7.9172,-3.5507 -10.6956,-2.2886 -6.8034,3.0902 -6.2714,12.1683 1.6553,28.2462 4.5547,9.238601 6.3632,21.857301 7.322,51.088901 0.8541,26.0406 -1.3996,38.2812 -11.5872,62.9324998 -2.412,5.8364002 -6.3563,17.3755002 -7.9762,23.3345002 -0.74,2.7224 -1.9012,6.2226 -2.5803,7.7782 -5.088,11.655 -5.3247,16.7608 -0.8709,18.7839 3.5031,1.5912 3.6857,3.8749 0.8723,10.9146 -0.6217,1.5556 -2.1397,5.374 -3.3733,8.4853 -2.0562,5.1859 -2.9121,10.0999 -2.5095,14.4083 0.086,0.9243 1.8331,1.5607 3.8816,1.4143 l 3.7247,-0.2663 -0.2695,12.521599 c -0.1481,6.8869 -0.8257,13.9805 -1.5058,15.7636 -1.4522,3.808 0.6998,7.2909 4.9618,8.0302 2.2626,0.3925 3.1156,2.1976 4.2332,8.9581 2.1908,13.2527 1.4856,34.2876 -1.2506,37.3017 -1.2483,1.3752 -2.2697,3.1806 -2.2697,4.0121 0,0.8315 -2.5534,5.702 -5.6743,10.8233 -3.1209,5.1212 -5.6744,9.6567 -5.6744,10.0788 0,1.5072 -12.0019,19.8638 -15.5428,23.7724 -13.2156,14.5874 -31.5935,9.4999 -45.0584,-12.4734 -3.4046,-5.5561 -7.491,-15.2489 -7.491,-17.7685 0,-1.4109 -0.6384,-2.9585 -1.4186,-3.4391 -0.7802,-0.4808 -1.4186,-2.3549 -1.4186,-4.1646 0,-1.8097 -0.9536,-5.1132 -2.1192,-7.3411 -1.1655,-2.2279 -2.123,-6.3573 -2.1278,-9.1762 -0.01,-2.819 -1.0898,-7.9103 -2.4111,-11.3138 -1.9871,-5.1187 -2.4161,-11.5889 -2.4825,-37.4371 -0.059,-22.904699 0.39,-31.813699 1.6807,-33.364099 0.9685,-1.1633 1.4631,-2.4121 1.099,-2.775 -1.0389,-1.0358 2.1151,-18.7235 3.606,-20.2224 0.735,-0.739 1.3363,-3.4061 1.3363,-5.927 0,-2.5209 0.5892,-4.9465 1.3094,-5.3902 0.7202,-0.4438 1.7227,-2.6825 2.2278,-4.9749 0.5051,-2.2925 2.3842,-7.2173 4.1758,-10.944 1.7917,-3.7267 3.7476,-8.3422 4.3467,-10.2566 1.9169,-6.1267 12.5308,-22.6981002 20.2132,-31.5590002 4.0962,-4.7246 7.4476,-9.1147998 7.4476,-9.7560998 0,-0.6413 0.925,-1.166 2.0557,-1.166 1.874,0 9.293,-8.2566 9.293,-10.3422 0,-7.4062 -59.3862,50.2136 -59.6201,57.8468 -0.022,0.7072 -1.9368,3.1419 -4.2558,5.4106 -2.319,2.2686 -4.2164,4.8953 -4.2164,5.8372 0,0.9418 -0.8983,2.4557 -1.9962,3.364 -2.6362,2.1811 -15.5489,28.6011 -18.3699,37.5856 -1.2211,3.8891 -2.9776,9.2985 -3.9034,12.0209 -3.8276,11.254799 -7.4211,60.135899 -5.2504,71.417599 0.5987,3.1114 1.682,10.1117 2.4075,15.5564 1.623,12.1806 5.4779,26.0112 8.869,31.8198 0.6811,1.1667 1.6219,3.0759 2.0906,4.2426 0.4686,1.1668 1.7413,4.1267 2.8281,6.5778 1.0868,2.451 1.976,5.4362 1.976,6.634 0,1.1977 0.6384,2.571 1.4186,3.0517 0.7802,0.4807 1.4186,1.8901 1.4186,3.132 0,1.2419 1.5959,4.3438 3.5465,6.8933 1.9505,2.5493 3.5464,5.3142 3.5464,6.1438 0,3.7321 -4.6301,0.774 -12.2739,-7.8413 -4.5626,-5.1426 -9.4127,-10.552 -10.7781,-12.0209 -1.3654,-1.469 -2.4826,-3.2082 -2.4826,-3.8651 0,-0.6568 -1.5396,-2.9805 -3.4213,-5.1636 -1.8817,-2.1831 -5.0746,-7.2143 -7.0952,-11.1802 -2.0207,-3.9658 -5.262,-9.7563 -7.203,-12.8676 -1.941,-3.1112 -4.1674,-7.1122 -4.9476,-8.8908 -1.9893,-4.5359 -12.7575,-27.4258 -14.1347,-30.0464 -0.6266,-1.1923 -1.5888,-4.2079 -2.1381,-6.7014 -0.5494,-2.4934 -1.5881,-4.8966 -2.3083,-5.3403 -0.7202,-0.4436 -1.3094,-2.3385 -1.3094,-4.2108 0,-1.8722 -0.8837,-5.4939 -1.9638,-8.0482 -10.1177,-23.9273 -15.0799,-87.004199 -10.1001,-128.3878992 2.7603,-22.9394998 7.7039,-45.7165998 10.535,-48.5389998 0.8409,-0.8383 1.5289,-3.1788 1.5289,-5.2011 0,-2.0223 0.5563,-4.2815 1.2362,-5.0205 0.6799,-0.7389 2.3688,-5.1619 3.753,-9.8287 2.8831,-9.7204 24.6722,-54.279001 29.8544,-61.052401 1.9021,-2.486 3.4583,-4.9557 3.4583,-5.4883 0,-0.5326 1.7555,-3.0611 3.9011,-5.619 2.1456,-2.5579 7.4121,-9.3047 11.7034,-14.9928 8.2533,-10.9399 42.6779,-45.7205 51.0692,-51.5972 2.7307,-1.9124 8.7952,-6.3134 13.4765,-9.7797 4.6814,-3.4665 10.1075,-7.0661 12.058,-7.9989 1.9506,-0.933 4.8299,-2.8154 6.3984,-4.183 1.5685,-1.3678 6.9946,-4.6405 12.058,-7.273 5.0634,-2.6324 10.4829,-5.4579 12.0433,-6.2789 1.5604,-0.8211 5.0715,-2.4661 7.8022,-3.6556 2.7308,-1.1895 9.834,-4.4229 15.7848,-7.1855 13.3657,-6.2051 26.8432,-10.7823 40.2495,-13.6697 13.9459,-3.0036 23.2741,-5.3314 24.5737,-6.132 0.7748,-0.4773 6.4148,-1.25 12.5334,-1.717 6.1187,-0.4669 11.6237,-1.1519 12.2334,-1.5222 0.6097,-0.3703 8.9173,-1.225 18.4614,-1.8991 18.9824,-1.3412 45.9454,0.085 67.6733,3.5798 7.4122,1.1923 16.6684,2.6511 20.5696,3.2422 3.9011,0.5908 8.0271,1.6542 9.1689,2.3626 1.1418,0.7086 4.6528,1.7556 7.8022,2.3269 8.5032,1.5418 17.5583,3.9451 20.3148,5.3916 5.1274,2.6903 12.8664,5.7579 14.5268,5.7579 2.9862,0 49.9545,23.922 57.7546,29.4159 4.0859,2.8777 11.108,7.7538 15.6045,10.8357 4.4965,3.0819 10.306,7.5367 12.91,9.8995 2.604,2.3628 5.9252,4.9388 7.3805,5.7242 4.4521,2.403 22.4919,20.5244 33.0703,33.22 5.509,6.6115 10.3689,12.339 10.7999,12.7279 0.431,0.389 2.3739,3.0893 4.3175,6.0008 1.9436,2.9115 4.0126,5.298 4.5977,5.3033 0.5852,0 1.064,0.9421 1.064,2.0818 0,1.1396 1.9151,4.2465 4.2558,6.9042 2.3406,2.6576 4.2557,5.2678 4.2557,5.8004 0,0.5326 1.5959,3.0542 3.5465,5.6036 1.9505,2.5495 3.5465,5.3253 3.5465,6.1686 0,0.8433 0.7979,2.384 1.7732,3.4236 0.9753,1.0397 2.8162,4.1081 4.091,6.818601 1.2747,2.7105 3.9675,8.4283 5.9839,12.7063 2.0164,4.278 5.6807,13.1876 8.1429,19.799 2.4622,6.6115 4.9922,13.0563 5.6224,14.3217 0.6301,1.2654 1.5924,4.7656 2.1383,7.7782 0.546,3.0125 1.3852,6.1138 1.8649,6.8916 1.2724,2.0629 4.346,15.6173 5.8499,25.7973 0.7172,4.8547998 2.0272,10.17399981 2.9112,11.8205998 2.7454,5.114 2.2101,79.7701002 -0.6835,95.3182002 -5.1779,27.822699 -7.5717,37.987299 -11.4901,48.790199 -5.2983,14.6078 -14.2443,36.4481 -17.1971,41.9843 -8.1028,15.1923 -12.4962,22.7274 -16.2932,27.9443 -2.2344,3.0701 -4.0625,6.4112 -4.0625,7.4247 0,1.0135 -0.5111,1.8427 -1.1358,1.8427 -0.6246,0 -2.8675,2.7313 -4.9841,6.0697 -2.1166,3.3382 -5.5953,7.9923 -7.7305,10.3424 -2.1351,2.3502 -6.3151,7.2513 -9.2888,10.8914 -4.4442,5.4401 -15.3996,15.567 -33.959,31.3911 -1.3654,1.1641 -2.4826,1.4666 -2.4826,0.672 z"
             style="display:inline;opacity:1;fill:#c0ae6d;fill-opacity:1;fill-rule:nonzero;stroke:#c0ae6d;stroke-width:3;stroke-linejoin:round;stroke-miterlimit:4;stroke-dasharray:none;stroke-dashoffset:0;stroke-opacity:1;enable-background:new" />
        </g>
        <text
           xml:space="preserve"
           style="font-style:normal;font-variant:normal;font-weight:normal;font-stretch:normal;font-size:386.01742554px;line-height:125%;font-family:Sawasdee;-inkscape-font-specification:Sawasdee;text-align:start;letter-spacing:0px;word-spacing:0px;writing-mode:lr-tb;text-anchor:start;fill:#000042;fill-opacity:1;stroke:none;stroke-width:1px;stroke-linecap:butt;stroke-linejoin:miter;stroke-opacity:1"
           x="1940.0145"
           y="802.9328"
           id="text4184"
           sodipodi:linespacing="125%"
           inkscape:export-xdpi="90"
           inkscape:export-ydpi="90"><tspan
             style="font-style:normal;font-variant:normal;font-weight:300;font-stretch:normal;font-family:segoe;-inkscape-font-specification:'segoe Light'"
             sodipodi:role="line"
             id="tspan4186"
             x="1940.0145"
             y="802.9328">abox</tspan></text>
        <text
           xml:space="preserve"
           style="font-style:normal;font-variant:normal;font-weight:normal;font-stretch:normal;font-size:27.82107735px;line-height:125%;font-family:SAWASDEE;-inkscape-font-specification:'SAWASDEE, Normal';text-align:start;letter-spacing:0px;word-spacing:0px;writing-mode:lr-tb;text-anchor:start;fill:#c0ae6d;fill-opacity:1;stroke:none;stroke-width:1px;stroke-linecap:butt;stroke-linejoin:miter;stroke-opacity:1"
           x="2784.8042"
           y="806.86731"
           id="text4188"
           sodipodi:linespacing="125%"
           inkscape:export-xdpi="90"
           inkscape:export-ydpi="90"><tspan
             sodipodi:role="line"
             id="tspan4190"
             x="2784.8042"
             y="806.86731"
             style="font-style:normal;font-variant:normal;font-weight:300;font-stretch:normal;font-size:386.01742554px;font-family:segoe;-inkscape-font-specification:'segoe Light';fill:#c0ae6d;fill-opacity:1">soft</tspan></text>
        <rect
           style="opacity:1;fill:url(#radialGradient4448);fill-opacity:1;stroke:none;stroke-width:5.79090929;stroke-linecap:round;stroke-linejoin:round;stroke-miterlimit:4;stroke-dasharray:none;stroke-opacity:1"
           id="rect4440"
           width="15.447022"
           height="655.33179"
           x="2750.0005"
           y="364.71146"
           ry="0.68464035"
           inkscape:export-xdpi="90"
           inkscape:export-ydpi="90" />
        <rect
           style="display:inline;opacity:1;fill:url(#radialGradient4448-5);fill-opacity:1;stroke:none;stroke-width:5.79090929;stroke-linecap:round;stroke-linejoin:round;stroke-miterlimit:4;stroke-dasharray:none;stroke-opacity:1;enable-background:new"
           id="rect4440-9"
           width="15.447022"
           height="655.33179"
           x="4291.8232"
           y="352.61386"
           ry="0.68464035"
           inkscape:export-xdpi="90"
           inkscape:export-ydpi="90" />
      </g>
    </g>
    <text
       xml:space="preserve"
       style="font-style:normal;font-variant:normal;font-weight:normal;font-stretch:normal;font-size:695.12652588px;line-height:125%;font-family:SAWASDEE;-inkscape-font-specification:'SAWASDEE, Normal';text-align:start;letter-spacing:0px;word-spacing:0px;writing-mode:lr-tb;text-anchor:start;fill:#c0ae6d;fill-opacity:1;stroke:none;stroke-width:1px;stroke-linecap:butt;stroke-linejoin:miter;stroke-opacity:1;"
       x="-9.3102865"
       y="-412.55649"
       id="text4150"
       sodipodi:linespacing="125%"><tspan
         sodipodi:role="line"
         id="tspan4152"
         x="-9.3102865"
         y="-412.55649"
         style="font-size:485.67236328px;fill:#c0ae6d;fill-opacity:1;-inkscape-font-specification:'Segoe Light';font-family:Segoe;font-weight:300;font-style:normal;font-stretch:normal;font-variant:normal;">Rafael <tspan
   style="font-weight:bold;fill:#c0ae6d;fill-opacity:1;"
   id="tspan4246">Bertolini</tspan></tspan></text>
    <text
       xml:space="preserve"
       style="font-style:normal;font-variant:normal;font-weight:normal;font-stretch:normal;font-size:40px;line-height:125%;font-family:SAWASDEE;-inkscape-font-specification:'SAWASDEE, Normal';text-align:start;letter-spacing:0px;word-spacing:0px;writing-mode:lr-tb;text-anchor:start;fill:#000042;fill-opacity:1;stroke:none;stroke-width:1px;stroke-linecap:butt;stroke-linejoin:miter;stroke-opacity:1"
       x="16.000013"
       y="-179.63786"
       id="text4259"
       sodipodi:linespacing="125%"><tspan
         sodipodi:role="line"
         id="tspan4261"
         x="16.000013"
         y="-179.63786"
         style="font-style:normal;font-variant:normal;font-weight:bold;font-stretch:normal;font-size:180px;font-family:Segoe;-inkscape-font-specification:'Segoe Light';fill:#000042;fill-opacity:1">+55 (12) 98176 0703</tspan></text>
    <text
       xml:space="preserve"
       style="font-style:normal;font-variant:normal;font-weight:normal;font-stretch:normal;font-size:40px;line-height:125%;font-family:SAWASDEE;-inkscape-font-specification:'SAWASDEE, Normal';text-align:start;letter-spacing:0px;word-spacing:0px;writing-mode:lr-tb;text-anchor:start;display:inline;fill:#000042;fill-opacity:1;stroke:none;stroke-width:1px;stroke-linecap:butt;stroke-linejoin:miter;stroke-opacity:1;enable-background:new"
       x="1919.3328"
       y="821.4892"
       id="text4259-2"
       sodipodi:linespacing="125%"><tspan
         sodipodi:role="line"
         id="tspan4261-0"
         x="1919.3328"
         y="821.4892"
         style="font-style:normal;font-variant:normal;font-weight:bold;font-stretch:normal;font-size:180px;font-family:Segoe;-inkscape-font-specification:'Segoe Light';fill:#000042;fill-opacity:1">www.aboxsoft.me</tspan></text>
  </g>
</svg>
