<svg version="1.1" id="Camada_1" xmlns="http://www.w3.org/2000/svg" xmlns:xlink="http://www.w3.org/1999/xlink" x="0px" y="0px"
	 viewBox="0 0 256 256" style="enable-background:new 0 0 256 256;" xml:space="preserve">
<style type="text/css">
	.st0{fill-rule:evenodd;clip-rule:evenodd;}
</style>
	<path class="st0" d="M113.2,31c20.9,0,37.8,16.9,37.8,37.8c0,7.8-2.4,15.1-6.5,21.1l-3.3,3.9l13.6,20.1l0.2-0.1
		c6.7-2.9,14.2-4.5,22-4.5c3.9,0,7.7,0.4,11.4,1.2l9.3,2.9l9.4-16.2l-5.2-7.6c-1.3-3-2-6.4-2-9.9c0-14.1,11.4-25.5,25.5-25.5
		c14.1,0,25.5,11.4,25.5,25.5c0,14.1-11.4,25.5-25.5,25.5c-1.7,0-3.5-0.2-5.1-0.5l-0.8-0.3l-9.3,16l6.8,5.6
		c10.2,10.2,16.6,24.4,16.6,40c0,31.2-25.3,56.5-56.5,56.5c-27.3,0-50.1-19.4-55.4-45.1l-0.8-8.1h-16.7l-0.5,5.2
		C99,197.6,78.5,215,53.8,215c-28.1,0-50.9-22.8-50.9-50.9s22.8-50.9,50.9-50.9c24.6,0,45.2,17.4,49.9,40.6l0.1,1h17.9l0-0.4
		c2.3-11,7.7-20.9,15.4-28.6l5.5-4.5l-12.8-18.8l-1.9,1.1c-4.5,1.9-9.5,3-14.7,3c-20.9,0-37.8-16.9-37.8-37.8
		C75.5,47.9,92.4,31,113.2,31z M113.2,45.8c-12.7,0-22.9,10.3-22.9,22.9c0,12.7,10.3,23,22.9,23s23-10.3,23-23
		C136.2,56.1,125.9,45.8,113.2,45.8z M225.5,66.2c-7.4,0-13.3,6-13.3,13.4c0,7.4,6,13.3,13.3,13.3c7.4,0,13.4-6,13.4-13.3
		C238.9,72.2,232.9,66.2,225.5,66.2z M177.2,126c-22,0-39.9,17.9-39.9,39.9c0,22,17.8,39.9,39.9,39.9c22,0,39.9-17.9,39.9-39.9
		C217,143.8,199.2,126,177.2,126z M53.8,129.7c-19,0-34.4,15.4-34.4,34.4s15.4,34.4,34.4,34.4c19,0,34.4-15.4,34.4-34.4
		S72.9,129.7,53.8,129.7z"/>
</svg>
