<svg
   xmlns="http://www.w3.org/2000/svg"
   viewBox="0 0 256 256">
  <path
     d="m 29.378497,34.289062 c 0,0 -1.870063,1.100208 -3.152414,3.151968 -1.789841,2.302529 87.861327,91.0745 89.950457,93.16408 -11.58418,11.75762 -74.51648,76.66468 -89.950457,88.71342 -2.089126,2.08913 -2.089126,5.47649 0,7.56607 l 3.152414,3.15197 c 2.089127,2.08912 5.47649,2.08912 7.565616,0 L 131.0355,135.94562 c 2.08912,-2.08912 2.08912,-5.47649 0,-7.56606 L 36.944113,34.289062 c -2.089126,-2.089572 -5.476489,-2.089572 -7.565616,0 z"
     style="fill:#000000;fill-opacity:1;stroke:#000000;stroke-width:11.07164478;stroke-miterlimit:4;stroke-dasharray:none;stroke-opacity:1" />
  <path
     d="m 223.54999,32.837405 c 0,0 1.87006,1.100207 3.15241,3.151969 1.78985,2.302528 -87.86132,91.074506 -89.95045,93.164076 11.58418,11.75762 74.51647,76.66468 89.95045,88.71342 2.08913,2.08913 2.08913,5.47649 0,7.56607 l -3.15241,3.15197 c -2.08913,2.08912 -5.47649,2.08912 -7.56561,0 l -94.09139,-94.09095 c -2.08913,-2.08913 -2.08913,-5.47649 0,-7.56606 l 94.09139,-94.090495 c 2.08912,-2.089572 5.47648,-2.089572 7.56561,0 z"
     style="fill:#000000;fill-opacity:1;stroke:#000000;stroke-width:11.07164478;stroke-miterlimit:4;stroke-dasharray:none;stroke-opacity:1" />
</svg>
