<?xml version="1.0" encoding="utf-8"?>
<!-- Generator: Adobe Illustrator 23.0.6, SVG Export Plug-In . SVG Version: 6.00 Build 0)  -->
<svg version="1.1" id="Camada_1" xmlns="http://www.w3.org/2000/svg" xmlns:xlink="http://www.w3.org/1999/xlink" x="0px" y="0px"
	 viewBox="0 0 256 256" style="enable-background:new 0 0 256 256;" xml:space="preserve">
<style type="text/css">
	.st0{fill:#FF494A;}
</style>
<g>
	<g>
		<g>
			<path class="st0" d="M127.7,1.6C57.8,1.6,1,58.5,1,128.3S57.8,255,127.7,255c69.9,0,126.7-56.8,126.7-126.7S197.5,1.6,127.7,1.6z
				 M127.7,244C63.9,244,12,192.1,12,128.3S63.9,12.6,127.7,12.6c63.8,0,115.7,51.9,115.7,115.7S191.5,244,127.7,244z"/>
			<path class="st0" d="M100.1,117.3c0-9.1-7.4-16.5-16.5-16.5s-16.5,7.4-16.5,16.5s7.4,16.5,16.5,16.5S100.1,126.4,100.1,117.3z
				 M78.1,117.3c0-3,2.5-5.5,5.5-5.5s5.5,2.5,5.5,5.5s-2.5,5.5-5.5,5.5S78.1,120.3,78.1,117.3z"/>
			<path class="st0" d="M171.8,100.8c-9.1,0-16.5,7.4-16.5,16.5s7.4,16.5,16.5,16.5s16.5-7.4,16.5-16.5S180.9,100.8,171.8,100.8z
				 M171.8,122.8c-3,0-5.5-2.5-5.5-5.5s2.5-5.5,5.5-5.5c3,0,5.5,2.5,5.5,5.5S174.8,122.8,171.8,122.8z"/>
			<path class="st0" d="M149.7,78.7c0.8,0,1.7-0.2,2.5-0.6l22-11c2.7-1.4,3.8-4.7,2.5-7.4c-1.4-2.7-4.7-3.8-7.4-2.5l-22,11
				c-2.7,1.4-3.8,4.7-2.5,7.4C145.8,77.6,147.7,78.7,149.7,78.7z"/>
			<path class="st0" d="M81.2,67.1l22,11c0.8,0.4,1.6,0.6,2.5,0.6c2,0,4-1.1,4.9-3c1.4-2.7,0.3-6-2.5-7.4l-22-11
				c-2.7-1.4-6-0.3-7.4,2.5C77.3,62.5,78.4,65.8,81.2,67.1z"/>
			<path class="st0" d="M127.7,155.9c-20.5,0-40.1,8.7-53.7,23.9c-2,2.3-1.8,5.8,0.4,7.8c2.3,2,5.8,1.8,7.8-0.4
				c11.5-12.8,28.1-20.2,45.5-20.2c17.4,0,34,7.4,45.5,20.2c1.1,1.2,2.6,1.8,4.1,1.8c1.3,0,2.6-0.5,3.7-1.4c2.3-2,2.5-5.5,0.4-7.8
				C167.8,164.6,148.2,155.9,127.7,155.9z"/>
		</g>
	</g>
</g>
</svg>
