<?xml version="1.0" encoding="utf-8"?>
<!-- Generator: Adobe Illustrator 23.0.6, SVG Export Plug-In . SVG Version: 6.00 Build 0)  -->
<svg version="1.1" id="Camada_1" xmlns="http://www.w3.org/2000/svg" xmlns:xlink="http://www.w3.org/1999/xlink" x="0px" y="0px"
	 viewBox="0 0 256 256" style="enable-background:new 0 0 256 256;" xml:space="preserve">
<style type="text/css">
	.st0{fill:#00DA96;}
</style>
<g>
	<g>
		<g>
			<path class="st0" d="M171.8,78.7c-9.1,0-16.5,7.4-16.5,16.5c0,9.1,7.4,16.5,16.5,16.5s16.5-7.4,16.5-16.5S180.9,78.7,171.8,78.7z
				 M171.8,100.8c-3,0-5.5-2.5-5.5-5.5c0-3,2.5-5.5,5.5-5.5c3,0,5.5,2.5,5.5,5.5C177.3,98.3,174.8,100.8,171.8,100.8z"/>
			<path class="st0" d="M83.6,111.8c9.1,0,16.5-7.4,16.5-16.5s-7.4-16.5-16.5-16.5s-16.5,7.4-16.5,16.5
				C67.1,104.4,74.5,111.8,83.6,111.8z M83.6,89.8c3,0,5.5,2.5,5.5,5.5c0,3-2.5,5.5-5.5,5.5s-5.5-2.5-5.5-5.5
				C78.1,92.2,80.6,89.8,83.6,89.8z"/>
			<path class="st0" d="M127.7,1.6C57.8,1.6,1,58.5,1,128.3S57.8,255,127.7,255s126.7-56.8,126.7-126.7S197.5,1.6,127.7,1.6z
				 M127.7,244C63.9,244,12,192.1,12,128.3S63.9,12.6,127.7,12.6s115.7,51.9,115.7,115.7S191.5,244,127.7,244z"/>
			<path class="st0" d="M182.8,144.8H72.6c-3,0-5.5,2.5-5.5,5.5c0,33.4,27.2,60.6,60.6,60.6s60.6-27.2,60.6-60.6
				C188.3,147.3,185.8,144.8,182.8,144.8z M127.7,199.9c-25.5,0-46.5-19.3-49.3-44.1H177C174.2,180.6,153.2,199.9,127.7,199.9z"/>
		</g>
	</g>
</g>
</svg>
