<?xml version="1.0" encoding="utf-8"?>
<!-- Generator: Adobe Illustrator 23.0.6, SVG Export Plug-In . SVG Version: 6.00 Build 0)  -->
<svg version="1.1" id="Camada_1" xmlns="http://www.w3.org/2000/svg" xmlns:xlink="http://www.w3.org/1999/xlink" x="0px" y="0px"
	 viewBox="0 0 256 256" style="enable-background:new 0 0 256 256;" xml:space="preserve">
<style type="text/css">
	.st0{fill:#07D245;}
</style>
<g>
	<g>
		<g>
			<path class="st0" d="M127.7,1.6C57.8,1.6,1,58.5,1,128.3S57.8,255,127.7,255s126.7-56.8,126.7-126.7S197.5,1.6,127.7,1.6z
				 M127.7,244C63.9,244,12,192.1,12,128.3S63.9,12.6,127.7,12.6s115.7,51.9,115.7,115.7S191.5,244,127.7,244z"/>
			<path class="st0" d="M100.1,106.3c0-9.1-7.4-16.5-16.5-16.5s-16.5,7.4-16.5,16.5s7.4,16.5,16.5,16.5S100.1,115.4,100.1,106.3z
				 M78.1,106.3c0-3,2.5-5.5,5.5-5.5s5.5,2.5,5.5,5.5s-2.5,5.5-5.5,5.5S78.1,109.3,78.1,106.3z"/>
			<path class="st0" d="M171.8,89.8c-9.1,0-16.5,7.4-16.5,16.5s7.4,16.5,16.5,16.5s16.5-7.4,16.5-16.5S180.9,89.8,171.8,89.8z
				 M171.8,111.8c-3,0-5.5-2.5-5.5-5.5s2.5-5.5,5.5-5.5s5.5,2.5,5.5,5.5S174.8,111.8,171.8,111.8z"/>
			<path class="st0" d="M180.9,157.3c-2.3-2-5.8-1.8-7.8,0.4c-11.5,12.8-28.1,20.2-45.5,20.2c-17.4,0-34-7.4-45.5-20.2
				c-2-2.3-5.5-2.5-7.8-0.4c-2.3,2-2.5,5.5-0.4,7.8c13.6,15.2,33.1,23.9,53.7,23.9c20.5,0,40.1-8.7,53.7-23.9
				C183.4,162.8,183.2,159.3,180.9,157.3z"/>
		</g>
	</g>
</g>
</svg>
