<?xml version="1.0" encoding="UTF-8" standalone="no"?>
<!-- Generator: Adobe Illustrator 23.0.6, SVG Export Plug-In . SVG Version: 6.00 Build 0)  -->

<svg
   xmlns:dc="http://purl.org/dc/elements/1.1/"
   xmlns:cc="http://creativecommons.org/ns#"
   xmlns:rdf="http://www.w3.org/1999/02/22-rdf-syntax-ns#"
   xmlns:svg="http://www.w3.org/2000/svg"
   xmlns="http://www.w3.org/2000/svg"
   xmlns:sodipodi="http://sodipodi.sourceforge.net/DTD/sodipodi-0.dtd"
   xmlns:inkscape="http://www.inkscape.org/namespaces/inkscape"
   version="1.1"
   id="Camada_1"
   x="0px"
   y="0px"
   viewBox="0 0 256 256"
   style="enable-background:new 0 0 256 256;"
   xml:space="preserve"
   sodipodi:docname="emoji-neutral.svg"
   inkscape:version="0.92.4 (5da689c313, 2019-01-14)"><metadata
   id="metadata23"><rdf:RDF><cc:Work
       rdf:about=""><dc:format>image/svg+xml</dc:format><dc:type
         rdf:resource="http://purl.org/dc/dcmitype/StillImage" /></cc:Work></rdf:RDF></metadata><defs
   id="defs21" /><sodipodi:namedview
   pagecolor="#ffffff"
   bordercolor="#666666"
   borderopacity="1"
   objecttolerance="10"
   gridtolerance="10"
   guidetolerance="10"
   inkscape:pageopacity="0"
   inkscape:pageshadow="2"
   inkscape:window-width="2560"
   inkscape:window-height="1377"
   id="namedview19"
   showgrid="false"
   inkscape:zoom="0.921875"
   inkscape:cx="128"
   inkscape:cy="128"
   inkscape:window-x="-8"
   inkscape:window-y="-8"
   inkscape:window-maximized="1"
   inkscape:current-layer="Camada_1" />
<style
   type="text/css"
   id="style2">
	.st0{fill:#606060;}
</style>
<g
   id="g16"
   style="stroke:none;stroke-opacity:1;fill:#ffffff;fill-opacity:1">
	<g
   id="g14"
   style="stroke:none;stroke-opacity:1;fill:#ffffff;fill-opacity:1">
		<g
   id="g12"
   style="stroke:none;stroke-opacity:1;fill:#ffffff;fill-opacity:1">
			<path
   class="st0"
   d="M127.7,1.6C57.8,1.6,1,58.5,1,128.3S57.8,255,127.7,255s126.7-56.8,126.7-126.7S197.5,1.6,127.7,1.6z      M127.7,244C63.9,244,12,192.1,12,128.3S63.9,12.6,127.7,12.6s115.7,51.9,115.7,115.7S191.5,244,127.7,244z"
   id="path4"
   style="stroke:none;stroke-opacity:1;fill:#ffffff;fill-opacity:1" />
			<path
   class="st0"
   d="M83.6,122.8c9.1,0,16.5-7.4,16.5-16.5s-7.4-16.5-16.5-16.5s-16.5,7.4-16.5,16.5S74.5,122.8,83.6,122.8z      M83.6,100.8c3,0,5.5,2.5,5.5,5.5s-2.5,5.5-5.5,5.5s-5.5-2.5-5.5-5.5S80.6,100.8,83.6,100.8z"
   id="path6"
   style="stroke:none;stroke-opacity:1;fill:#ffffff;fill-opacity:1" />
			<path
   class="st0"
   d="M171.8,89.8c-9.1,0-16.5,7.4-16.5,16.5s7.4,16.5,16.5,16.5s16.5-7.4,16.5-16.5S180.9,89.8,171.8,89.8z      M171.8,111.8c-3,0-5.5-2.5-5.5-5.5s2.5-5.5,5.5-5.5s5.5,2.5,5.5,5.5S174.8,111.8,171.8,111.8z"
   id="path8"
   style="stroke:none;stroke-opacity:1;fill:#ffffff;fill-opacity:1" />
			<path
   class="st0"
   d="M182.8,155.9H72.6c-3,0-5.5,2.5-5.5,5.5s2.5,5.5,5.5,5.5h110.2c3,0,5.5-2.5,5.5-5.5S185.8,155.9,182.8,155.9     z"
   id="path10"
   style="stroke:none;stroke-opacity:1;fill:#ffffff;fill-opacity:1" />
		</g>
	</g>
</g>
</svg>