<?xml version="1.0" encoding="UTF-8" standalone="no"?>
<svg
   xmlns:dc="http://purl.org/dc/elements/1.1/"
   xmlns:cc="http://creativecommons.org/ns#"
   xmlns:rdf="http://www.w3.org/1999/02/22-rdf-syntax-ns#"
   xmlns:svg="http://www.w3.org/2000/svg"
   xmlns="http://www.w3.org/2000/svg"
   xmlns:sodipodi="http://sodipodi.sourceforge.net/DTD/sodipodi-0.dtd"
   xmlns:inkscape="http://www.inkscape.org/namespaces/inkscape"
   width="256"
   height="256"
   overflow="hidden"
   version="1.1"
   id="svg11"
   sodipodi:docname="heart-seek.svg"
   inkscape:version="1.0.1 (3bc2e813f5, 2020-09-07)">
  <metadata
     id="metadata15">
    <rdf:RDF>
      <cc:Work
         rdf:about="">
        <dc:format>image/svg+xml</dc:format>
        <dc:type
           rdf:resource="http://purl.org/dc/dcmitype/StillImage" />
        <dc:title></dc:title>
      </cc:Work>
    </rdf:RDF>
  </metadata>
  <sodipodi:namedview
     pagecolor="#ffffff"
     bordercolor="#666666"
     borderopacity="1"
     objecttolerance="10"
     gridtolerance="10"
     guidetolerance="10"
     inkscape:pageopacity="0"
     inkscape:pageshadow="2"
     inkscape:window-width="2560"
     inkscape:window-height="1377"
     id="namedview13"
     showgrid="false"
     inkscape:zoom="2.8705234"
     inkscape:cx="181.5"
     inkscape:cy="114.5"
     inkscape:window-x="-8"
     inkscape:window-y="-8"
     inkscape:window-maximized="1"
     inkscape:current-layer="svg11" />
  <defs
     id="defs5">
    <clipPath
       id="clip0">
      <rect
         x="728"
         y="138"
         width="363"
         height="229"
         id="rect2" />
    </clipPath>
  </defs>
  <g
     clip-path="url(#clip0)"
     transform="matrix(0.70552224,0,0,0.70552224,-513.32576,-49.926662)"
     id="g9"
     style="fill:#fdffff;fill-opacity:1">
    <path
       d="m 900.64,196.117 -2.911,0.18 -3.013,9.668 c -0.868,4.224 -1.325,8.594 -1.325,13.065 0,22.358 11.414,42.175 28.694,53.894 l 3.125,1.705 6.406,-8.781 c 26.467,-41.073 -0.254,-69.456 -30.976,-69.731 z m 57.685,-42.128 c -17.857,0 -34.09,7.317 -45.86,19.106 l -5.399,6.548 6.339,0.927 c 32.693,6.969 56.831,43.073 30.314,93.481 l -4.073,6.931 5.635,1.761 c 4.217,0.871 8.58,1.328 13.044,1.328 35.713,0 64.935,-29.268 64.935,-65.041 0,-35.772 -29.222,-65.041 -64.935,-65.041 z M 958.595,138 c 44.645,0 81.165,36.585 81.165,81.301 0,18.428 -6.22,35.773 -16.77,49.323 l 11.9,11.924 c 5.95,-1.084 12.18,0.542 16.78,5.149 l 33.82,33.875 c 7.3,7.318 7.3,19.242 0.27,26.83 -3.79,3.794 -8.66,5.691 -13.53,5.691 -4.87,0 -9.74,-1.897 -13.53,-5.691 l -33.82,-33.876 c -4.6,-4.607 -6.22,-10.84 -5.14,-16.802 l -11.9,-11.924 c -13.802,10.569 -30.847,16.802 -49.245,16.802 -11.16,0 -21.813,-2.286 -31.515,-6.415 l -0.806,-0.44 -13.173,15.572 C 895.887,327.568 872.154,346.971 840.401,367 678.109,264.63 725.306,178.611 781.802,179.456 c 22.107,0.33 45.638,13.961 58.599,45.117 9.72,-23.367 25.386,-36.876 41.938,-42.31 l 5.159,-1.271 3.841,-7.065 C 905.964,152.291 930.694,138 958.595,138 Z"
       fill="#FFFFFF"
       fill-rule="evenodd"
       id="path7"
       style="fill:#fdffff;fill-opacity:1" />
  </g>
</svg>
