<?xml version="1.0" encoding="utf-8"?>
<!-- Generator: Adobe Illustrator 23.0.6, SVG Export Plug-In . SVG Version: 6.00 Build 0)  -->
<svg version="1.1" id="Camada_1" xmlns="http://www.w3.org/2000/svg" xmlns:xlink="http://www.w3.org/1999/xlink" x="0px" y="0px"
	 viewBox="0 0 256 256" style="enable-background:new 0 0 256 256;" xml:space="preserve">
<g>
	<g>
		<path d="M111.5,176.2H52.7c-4.9,0-8.8,4-8.8,8.9s4,8.9,8.8,8.9h58.9c4.9,0,8.8-4,8.8-8.9S116.4,176.2,111.5,176.2z"/>
		<path d="M111.5,205.8H52.7c-4.9,0-8.8,4-8.8,8.9c0,4.9,4,8.9,8.8,8.9l58.9,0c4.9,0,8.8-4,8.8-8.9
			C120.4,209.7,116.4,205.8,111.5,205.8z"/>
		<path d="M82.1,253c10,0,18.3-7.7,19.1-17.7H63C63.8,245.3,72.1,253,82.1,253z"/>
		<path d="M187,129.5l-23.5-11.8v-6.4L187,99.5c8.2,0.3,14.7,7,14.7,15.3C201.7,122.9,195.1,129.5,187,129.5z M183.9,87.9
			l-52.7,26.6c-1.3,2-2.8,3.9-4.4,5.7c-6.7,8.2-12.5,17.1-17.2,26.6l-55,0c-4.7-9.5-10.5-18.4-17.2-26.6c-4.2-4.8-7.6-10.3-9.9-16.2
			c-2.5-6.6-3.9-13.6-4.2-20.7V81C23.8,48.8,50,22.9,82.1,22.7c32.1,0.2,58.3,26.1,58.9,58.3c0,0.2,0,0.4,0,0.5c0,4.9,4,8.9,8.8,8.9
			c4.9,0,8.8-4,8.8-8.9C157.9,39.5,124,5.6,82.1,5C40.3,5.3,6.4,39,5.6,80.9v2.7c0.3,9.1,2.1,18.1,5.3,26.6
			c3.1,8,7.6,15.4,13.3,21.8c7,7.7,14.7,22.6,17.9,29.2c1,2,3,3.3,5.3,3.3l69.4,0c2.2,0,4.3-1.3,5.3-3.3
			c3.2-6.6,10.9-21.5,17.9-29.2c2.6-3,5-6.1,7-9.5l37,18.7h65.8V87.7L183.9,87.9z"/>
	</g>
</g>
</svg>
