<svg id="Camada_1" data-name="Camada 1" xmlns="http://www.w3.org/2000/svg" viewBox="0 0 301.44 222.96"><defs><style>.cls-1{fill:#fff;fill-rule:evenodd;}</style></defs><path class="cls-1" d="M148.14,393.24H315.21V410.9H148.14V393.24ZM310,230.84a67.26,67.26,0,0,0-37.8,11.61l-.26.22h52.79v34.39H246.08L243.61,285a67.75,67.75,0,0,0,0,27.21l2.83,9.07h77v35.07l-47.6.41,7.78,4.24a67.13,67.13,0,0,0,26.3,5.34,67.74,67.74,0,1,0,0-135.47Zm.29-16.65a84.91,84.91,0,0,1,84.66,84.67,83.66,83.66,0,0,1-17.5,51.37l12.42,12.41a19.5,19.5,0,0,1,17.5,5.37l35.28,35.27a20.2,20.2,0,0,1,.28,27.94,19.75,19.75,0,0,1-28.22,0L379.39,396a19.49,19.49,0,0,1-5.36-17.5L361.61,366a84.23,84.23,0,0,1-111.16-7.37l-1.4-1.7H249l0-.13-8.31-10.06H148.14V329.11h83.3l-4.13-13.24a84.46,84.46,0,0,1-1.73-17l1.65-16.23H146.92V265h85.89l7.28-13.36a84.75,84.75,0,0,1,70.16-37.42Z" transform="translate(-146.92 -214.19)"/></svg>