<?xml version="1.0" encoding="UTF-8" standalone="no"?>
<svg
   xmlns:dc="http://purl.org/dc/elements/1.1/"
   xmlns:cc="http://creativecommons.org/ns#"
   xmlns:rdf="http://www.w3.org/1999/02/22-rdf-syntax-ns#"
   xmlns:svg="http://www.w3.org/2000/svg"
   xmlns="http://www.w3.org/2000/svg"
   xml:space="preserve"
   style="enable-background:new 0 0 256 256;"
   viewBox="0 0 256 256"
   y="0px"
   x="0px"
   id="Camada_1"
   version="1.1"><metadata
   id="metadata13"><rdf:RDF><cc:Work
       rdf:about=""><dc:format>image/svg+xml</dc:format><dc:type
         rdf:resource="http://purl.org/dc/dcmitype/StillImage" /><dc:title></dc:title></cc:Work></rdf:RDF></metadata><defs
   id="defs11" />
<style
   id="style2"
   type="text/css">
	.st0{fill-rule:evenodd;clip-rule:evenodd;}
</style>

<rect
   style="clip-rule:evenodd;fill-rule:evenodd;stroke-width:0.98061198"
   id="rect6"
   height="23.943834"
   width="8.5"
   class="st0"
   y="137.50525"
   x="237.16579" />
<g
   transform="matrix(0.91818396,0,0,0.91818396,10.518873,-1.5909198)"
   id="g837"><path
     class="st0"
     d="M 0,5 H 117.7 V 29.299377 H 0 Z m 173.7,0 h 82.4 V 29.299377 H 173.7 Z M 0,53.876461 H 16.1 V 78.106412 H 0 Z m 72,0 H 256.1 V 78.106412 H 72 Z M 0,102.6835 h 128.6 v 24.22995 H 0 Z m 184.5,0 H 256 v 24.22995 H 184.5 Z M 0,151.49053 h 52.1 v 24.29938 H 0 Z m 108,0 h 92 v 24.29938 h -92 z m 148.1,0 v 0 24.29938 z"
     id="path4"
     style="clip-rule:evenodd;fill-rule:evenodd;stroke-width:0.8332274" /><path
     class="st0"
     d="M 1.0347411,203.68979 H 118.73474 v 24.29938 H 1.0347411 Z m 173.6999989,0 h 82.4 v 24.29938 h -82.4 z M 1.0347411,252.56625 H 17.134741 V 276.7962 H 1.0347411 Z m 71.9999999,0 H 257.13474 V 276.7962 H 73.034741 Z"
     id="path4-3"
     style="clip-rule:evenodd;fill-rule:evenodd;stroke-width:0.8332274" /></g></svg>